<svg width="139" height="139" viewBox="0 0 139 139" fill="none" xmlns="http://www.w3.org/2000/svg">
<rect x="3.5" y="3.5" width="132" height="132" rx="16.5" stroke="#14B062" stroke-width="7"/>
<path d="M4.5 113H30.6535C39.7056 113 47.6291 106.92 49.972 98.1763L66.5681 36.2386C67.0977 34.2621 69.9023 34.2621 70.4319 36.2386L87.028 98.1763C89.3709 106.92 97.2944 113 106.347 113H133.5" stroke="#14B062" stroke-width="7"/>
<path d="M30.6535 113H9.5C6.73858 113 4.5 115.239 4.5 118V125C4.5 130.523 8.97715 135 14.5 135H123.5C129.023 135 133.5 130.523 133.5 125V118C133.5 115.239 131.261 113 128.5 113H106.347C97.2944 113 89.3709 106.92 87.028 98.1763L70.4319 36.2386C69.9023 34.2621 67.0977 34.2621 66.5681 36.2386L49.972 98.1763C47.6291 106.92 39.7056 113 30.6535 113Z" fill="#14B062" fill-opacity="0.3"/>
</svg>
