<svg width="246" height="66" viewBox="0 0 246 66" fill="none" xmlns="http://www.w3.org/2000/svg">
<path d="M3.36 51V16.44H17.952C18.288 16.44 18.736 16.456 19.296 16.488C19.872 16.504 20.384 16.552 20.832 16.632C22.896 16.952 24.584 17.632 25.896 18.672C27.224 19.712 28.2 21.024 28.824 22.608C29.448 24.176 29.76 25.928 29.76 27.864C29.76 29.8 29.44 31.56 28.8 33.144C28.176 34.712 27.2 36.016 25.872 37.056C24.56 38.096 22.88 38.776 20.832 39.096C20.384 39.16 19.872 39.208 19.296 39.24C18.72 39.272 18.272 39.288 17.952 39.288H9.888V51H3.36ZM9.888 33.192H17.664C18 33.192 18.368 33.176 18.768 33.144C19.168 33.112 19.536 33.048 19.872 32.952C20.752 32.712 21.432 32.312 21.912 31.752C22.392 31.176 22.72 30.544 22.896 29.856C23.088 29.152 23.184 28.488 23.184 27.864C23.184 27.24 23.088 26.584 22.896 25.896C22.72 25.192 22.392 24.56 21.912 24C21.432 23.424 20.752 23.016 19.872 22.776C19.536 22.68 19.168 22.616 18.768 22.584C18.368 22.552 18 22.536 17.664 22.536H9.888V33.192ZM48.6428 51.72C45.8588 51.72 43.4108 51.16 41.2988 50.04C39.1868 48.904 37.5388 47.312 36.3548 45.264C35.1708 43.216 34.5788 40.808 34.5788 38.04V16.488L41.2028 16.44V37.992C41.2028 39.128 41.3948 40.16 41.7788 41.088C42.1628 42.016 42.6908 42.816 43.3628 43.488C44.0508 44.16 44.8428 44.68 45.7388 45.048C46.6508 45.4 47.6188 45.576 48.6428 45.576C49.6988 45.576 50.6748 45.392 51.5708 45.024C52.4828 44.656 53.2748 44.136 53.9468 43.464C54.6188 42.792 55.1388 41.992 55.5068 41.064C55.8908 40.136 56.0828 39.112 56.0828 37.992V16.44H62.7068V38.04C62.7068 40.808 62.1148 43.216 60.9308 45.264C59.7468 47.312 58.0988 48.904 55.9868 50.04C53.8748 51.16 51.4268 51.72 48.6428 51.72ZM69.8869 51V16.44H76.4149V44.904H91.2949V51H69.8869ZM108.432 51.72C105.872 51.72 103.56 51.272 101.496 50.376C99.4476 49.464 97.7596 48.168 96.4316 46.488C95.1196 44.792 94.2876 42.776 93.9356 40.44L100.752 39.432C101.232 41.416 102.224 42.944 103.728 44.016C105.232 45.088 106.944 45.624 108.864 45.624C109.936 45.624 110.976 45.456 111.984 45.12C112.992 44.784 113.816 44.288 114.456 43.632C115.112 42.976 115.44 42.168 115.44 41.208C115.44 40.856 115.384 40.52 115.272 40.2C115.176 39.864 115.008 39.552 114.768 39.264C114.528 38.976 114.184 38.704 113.736 38.448C113.304 38.192 112.752 37.96 112.08 37.752L103.104 35.112C102.432 34.92 101.648 34.648 100.752 34.296C99.8716 33.944 99.0156 33.44 98.1836 32.784C97.3516 32.128 96.6556 31.264 96.0956 30.192C95.5516 29.104 95.2796 27.736 95.2796 26.088C95.2796 23.768 95.8636 21.84 97.0316 20.304C98.1996 18.768 99.7596 17.624 101.712 16.872C103.664 16.12 105.824 15.752 108.192 15.768C110.576 15.8 112.704 16.208 114.576 16.992C116.448 17.776 118.016 18.92 119.28 20.424C120.544 21.912 121.456 23.736 122.016 25.896L114.96 27.096C114.704 25.976 114.232 25.032 113.544 24.264C112.856 23.496 112.032 22.912 111.072 22.512C110.128 22.112 109.136 21.896 108.096 21.864C107.072 21.832 106.104 21.976 105.192 22.296C104.296 22.6 103.56 23.048 102.984 23.64C102.424 24.232 102.144 24.936 102.144 25.752C102.144 26.504 102.376 27.12 102.84 27.6C103.304 28.064 103.888 28.44 104.592 28.728C105.296 29.016 106.016 29.256 106.752 29.448L112.752 31.08C113.648 31.32 114.64 31.64 115.728 32.04C116.816 32.424 117.856 32.968 118.848 33.672C119.856 34.36 120.68 35.272 121.32 36.408C121.976 37.544 122.304 38.984 122.304 40.728C122.304 42.584 121.912 44.208 121.128 45.6C120.36 46.976 119.32 48.12 118.008 49.032C116.696 49.928 115.208 50.6 113.544 51.048C111.896 51.496 110.192 51.72 108.432 51.72ZM166.016 51V16.44H180.608C180.944 16.44 181.392 16.456 181.952 16.488C182.528 16.504 183.04 16.552 183.488 16.632C185.552 16.952 187.24 17.632 188.552 18.672C189.88 19.712 190.856 21.024 191.48 22.608C192.104 24.176 192.416 25.928 192.416 27.864C192.416 30.76 191.696 33.24 190.256 35.304C188.816 37.352 186.56 38.616 183.488 39.096L180.608 39.288H172.544V51H166.016ZM185.504 51L178.688 36.936L185.408 35.64L192.896 51H185.504ZM172.544 33.192H180.32C180.656 33.192 181.024 33.176 181.424 33.144C181.824 33.112 182.192 33.048 182.528 32.952C183.408 32.712 184.088 32.312 184.568 31.752C185.048 31.176 185.376 30.544 185.552 29.856C185.744 29.152 185.84 28.488 185.84 27.864C185.84 27.24 185.744 26.584 185.552 25.896C185.376 25.192 185.048 24.56 184.568 24C184.088 23.424 183.408 23.016 182.528 22.776C182.192 22.68 181.824 22.616 181.424 22.584C181.024 22.552 180.656 22.536 180.32 22.536H172.544V33.192ZM198.653 51V16.44H205.181V51H198.653ZM225.432 51.72C222.872 51.72 220.56 51.272 218.496 50.376C216.448 49.464 214.76 48.168 213.432 46.488C212.12 44.792 211.288 42.776 210.936 40.44L217.752 39.432C218.232 41.416 219.224 42.944 220.728 44.016C222.232 45.088 223.944 45.624 225.864 45.624C226.936 45.624 227.976 45.456 228.984 45.12C229.992 44.784 230.816 44.288 231.456 43.632C232.112 42.976 232.44 42.168 232.44 41.208C232.44 40.856 232.384 40.52 232.272 40.2C232.176 39.864 232.008 39.552 231.768 39.264C231.528 38.976 231.184 38.704 230.736 38.448C230.304 38.192 229.752 37.96 229.08 37.752L220.104 35.112C219.432 34.92 218.648 34.648 217.752 34.296C216.872 33.944 216.016 33.44 215.184 32.784C214.352 32.128 213.656 31.264 213.096 30.192C212.552 29.104 212.28 27.736 212.28 26.088C212.28 23.768 212.864 21.84 214.032 20.304C215.2 18.768 216.76 17.624 218.712 16.872C220.664 16.12 222.824 15.752 225.192 15.768C227.576 15.8 229.704 16.208 231.576 16.992C233.448 17.776 235.016 18.92 236.28 20.424C237.544 21.912 238.456 23.736 239.016 25.896L231.96 27.096C231.704 25.976 231.232 25.032 230.544 24.264C229.856 23.496 229.032 22.912 228.072 22.512C227.128 22.112 226.136 21.896 225.096 21.864C224.072 21.832 223.104 21.976 222.192 22.296C221.296 22.6 220.56 23.048 219.984 23.64C219.424 24.232 219.144 24.936 219.144 25.752C219.144 26.504 219.376 27.12 219.84 27.6C220.304 28.064 220.888 28.44 221.592 28.728C222.296 29.016 223.016 29.256 223.752 29.448L229.752 31.08C230.648 31.32 231.64 31.64 232.728 32.04C233.816 32.424 234.856 32.968 235.848 33.672C236.856 34.36 237.68 35.272 238.32 36.408C238.976 37.544 239.304 38.984 239.304 40.728C239.304 42.584 238.912 44.208 238.128 45.6C237.36 46.976 236.32 48.12 235.008 49.032C233.696 49.928 232.208 50.6 230.544 51.048C228.896 51.496 227.192 51.72 225.432 51.72Z" fill="#14B162"/>
<path d="M4 62L113.061 62C121.521 62 129.065 56.6773 131.903 48.7074L142.73 18.2933C143.361 16.5209 145.867 16.5209 146.498 18.2934L157.323 48.7064C160.16 56.6768 167.705 62 176.165 62H242" stroke="#14B062" stroke-width="7" stroke-linecap="round"/>
</svg>
